<?xml version="1.0" encoding="utf-8"?>
<!-- Generator: Adobe Illustrator 27.2.0, SVG Export Plug-In . SVG Version: 6.00 Build 0)  -->
<svg version="1.1" id="Layer_1" xmlns="http://www.w3.org/2000/svg" xmlns:xlink="http://www.w3.org/1999/xlink" x="0px" y="0px"
	 viewBox="0 0 250 250" style="enable-background:new 0 0 250 250;" xml:space="preserve">
<style type="text/css">
	.st0{fill-rule:evenodd;clip-rule:evenodd;fill:url(#SVGID_1_);}
</style>
<linearGradient id="SVGID_1_" gradientUnits="userSpaceOnUse" x1="125" y1="504.2339" x2="125" y2="273.7661" gradientTransform="matrix(1 0 0 -1 0 514)">
	<stop  offset="0" style="stop-color:#3E16FF"/>
	<stop  offset="1" style="stop-color:#F9163F"/>
</linearGradient>
<path class="st0" d="M211,9.8H39c-21.5,0-39,17.5-39,39v119.8c0,21.5,17.5,39,39,39h77.7v16.1H36.5c-4.6,0-8.3,3.7-8.3,8.3
	c0,4.6,3.7,8.3,8.3,8.3h177c4.6,0,8.3-3.7,8.3-8.3c0-4.6-3.7-8.3-8.3-8.3h-80.2v-16.1H211c21.5,0,39-17.5,39-39V48.8
	C250,27.3,232.5,9.8,211,9.8L211,9.8z M165.7,124.8l-52.4,30.2c-2.9,1.7-6.1,2.5-9.3,2.5c-3.2,0-6.4-0.8-9.3-2.5
	c-5.8-3.4-9.3-9.4-9.3-16.2V78.4c0-6.8,3.5-12.8,9.3-16.2c5.8-3.4,12.8-3.4,18.7,0l52.4,30.2c5.8,3.4,9.3,9.4,9.3,16.2
	C175,115.4,171.5,121.5,165.7,124.8z"/>
</svg>
